<?xml version="1.0" encoding="UTF-8" standalone="no"?>
<svg
   xmlns:dc="http://purl.org/dc/elements/1.1/"
   xmlns:cc="http://creativecommons.org/ns#"
   xmlns:rdf="http://www.w3.org/1999/02/22-rdf-syntax-ns#"
   xmlns:svg="http://www.w3.org/2000/svg"
   xmlns="http://www.w3.org/2000/svg"
   xmlns:sodipodi="http://sodipodi.sourceforge.net/DTD/sodipodi-0.dtd"
   xmlns:inkscape="http://www.inkscape.org/namespaces/inkscape"
   inkscape:export-ydpi="96"
   inkscape:export-xdpi="96"
   inkscape:export-filename="/Users/tom32i/Documents/lens.png"
   width="214"
   height="96"
   viewBox="0 0 56.620832 25.4"
   version="1.1"
   id="svg8"
   inkscape:version="1.0beta2 (2b71d25, 2019-12-03)"
   sodipodi:docname="lens.svg">
  <defs
     id="defs2" />
  <sodipodi:namedview
     id="base"
     pagecolor="#ffffff"
     bordercolor="#666666"
     borderopacity="1.0"
     inkscape:pageopacity="0.0"
     inkscape:pageshadow="2"
     inkscape:zoom="2.8"
     inkscape:cx="197.44644"
     inkscape:cy="8.4898308"
     inkscape:document-units="px"
     inkscape:current-layer="g1621"
     inkscape:document-rotation="0"
     showgrid="false"
     units="px"
     inkscape:pagecheckerboard="true"
     showguides="false"
     inkscape:window-width="2560"
     inkscape:window-height="1351"
     inkscape:window-x="0"
     inkscape:window-y="23"
     inkscape:window-maximized="1">
    <sodipodi:guide
       position="31.75,22.7542"
       inkscape:color="rgb(167,0,255)"
       inkscape:label="Mesurer"
       orientation="0.993307,0.115501"
       id="guide839" />
    <sodipodi:guide
       position="31.75,22.7542"
       inkscape:color="rgb(167,0,255)"
       inkscape:label=""
       orientation="-0,1"
       id="guide841" />
    <sodipodi:guide
       position="31.75,22.7542"
       inkscape:color="rgb(167,0,255)"
       inkscape:label="Début"
       orientation="-1,6.12323e-17"
       id="guide843" />
    <sodipodi:guide
       position="35.7187,56.8854"
       inkscape:color="rgb(167,0,255)"
       inkscape:label="Fin"
       orientation="-0,1"
       id="guide845" />
    <sodipodi:guide
       position="35.7187,56.8854"
       inkscape:color="rgb(167,0,255)"
       inkscape:label=""
       orientation="-1,6.12323e-17"
       id="guide847" />
    <sodipodi:guide
       position="31.9705,24.6503"
       inkscape:color="rgb(167,0,255)"
       inkscape:label="1 traversé(s)"
       orientation="-0.115501,-0.993307"
       id="guide849" />
    <sodipodi:guide
       position="32.5017,29.2185"
       inkscape:color="rgb(167,0,255)"
       inkscape:label="2 traversé(s)"
       orientation="-0.115501,-0.993307"
       id="guide851" />
    <sodipodi:guide
       position="31.75,56.6208"
       inkscape:color="rgb(167,0,255)"
       inkscape:label="Mesurer"
       orientation="-0.993307,0.115501"
       id="guide853" />
    <sodipodi:guide
       position="31.75,56.6208"
       inkscape:color="rgb(167,0,255)"
       inkscape:label=""
       orientation="-0,1"
       id="guide855" />
    <sodipodi:guide
       position="31.75,56.6208"
       inkscape:color="rgb(167,0,255)"
       inkscape:label="Début"
       orientation="-1,6.12323e-17"
       id="guide857" />
    <sodipodi:guide
       position="35.7187,22.4896"
       inkscape:color="rgb(167,0,255)"
       inkscape:label="Fin"
       orientation="-0,1"
       id="guide859" />
    <sodipodi:guide
       position="35.7187,22.4896"
       inkscape:color="rgb(167,0,255)"
       inkscape:label=""
       orientation="-1,6.12323e-17"
       id="guide861" />
    <sodipodi:guide
       position="34.9312,29.2626"
       inkscape:color="rgb(167,0,255)"
       inkscape:label="1 traversé(s)"
       orientation="-0.115501,0.993307"
       id="guide863" />
    <sodipodi:guide
       position="35.5947,23.5562"
       inkscape:color="rgb(167,0,255)"
       inkscape:label="2 traversé(s)"
       orientation="-0.115501,0.993307"
       id="guide865" />
    <sodipodi:guide
       position="31.75,22.7542"
       inkscape:color="rgb(167,0,255)"
       inkscape:label="Mesurer"
       orientation="0.993307,0.115501"
       id="guide867" />
    <sodipodi:guide
       position="31.75,22.7542"
       inkscape:color="rgb(167,0,255)"
       inkscape:label=""
       orientation="-0,1"
       id="guide869" />
    <sodipodi:guide
       position="31.75,22.7542"
       inkscape:color="rgb(167,0,255)"
       inkscape:label="Début"
       orientation="-1,6.12323e-17"
       id="guide871" />
    <sodipodi:guide
       position="35.7187,56.8854"
       inkscape:color="rgb(167,0,255)"
       inkscape:label="Fin"
       orientation="-0,1"
       id="guide873" />
    <sodipodi:guide
       position="35.7187,56.8854"
       inkscape:color="rgb(167,0,255)"
       inkscape:label=""
       orientation="-1,6.12323e-17"
       id="guide875" />
    <sodipodi:guide
       position="31.9705,24.6503"
       inkscape:color="rgb(167,0,255)"
       inkscape:label="1 traversé(s)"
       orientation="-0.115501,-0.993307"
       id="guide877" />
    <sodipodi:guide
       position="32.5017,29.2185"
       inkscape:color="rgb(167,0,255)"
       inkscape:label="2 traversé(s)"
       orientation="-0.115501,-0.993307"
       id="guide879" />
    <sodipodi:guide
       id="guide1556"
       orientation="1,0"
       position="13.347284,17.056175" />
  </sodipodi:namedview>
  <metadata
     id="metadata5">
    <rdf:RDF>
      <cc:Work
         rdf:about="">
        <dc:format>image/svg+xml</dc:format>
        <dc:type
           rdf:resource="http://purl.org/dc/dcmitype/StillImage" />
        <dc:title />
      </cc:Work>
    </rdf:RDF>
  </metadata>
  <g
     inkscape:label="Calque 1"
     inkscape:groupmode="layer"
     id="layer1">
    <g
       aria-label="lens"
       id="text835"
       style="font-style:normal;font-weight:normal;font-size:10.5833px;line-height:1.25;font-family:sans-serif;fill:#000000;fill-opacity:1;stroke:none;stroke-width:0.264583">
      <g
         transform="translate(-18.520833,-7.1246249)"
         id="g1636">
        <g
           id="g1612"
           transform="translate(0.52916668,0.15956937)">
          <path
             inkscape:connector-curvature="0"
             transform="scale(0.26458333)"
             id="path881"
             style="font-style:normal;font-variant:normal;font-weight:normal;font-stretch:normal;font-size:28.2222px;font-family:Jaldi;-inkscape-font-specification:'Jaldi Normal';font-variant-ligatures:normal;font-variant-caps:normal;font-variant-numeric:normal;font-variant-east-asian:normal;stroke-width:0.999999"
             d="m 126.40625,39.083984 c -3.71527,0 -5.57227,1.007599 -5.57227,3.021485 v 52.552734 c 0,5.06944 1.14584,8.853517 3.4375,11.353517 2.32639,2.46527 5.6938,3.69726 10.10352,3.69726 5.90277,0 8.85352,-1.52647 8.85352,-4.58203 0,-0.34722 -0.12024,-1.07639 -0.36329,-2.1875 -0.24305,-1.14583 -0.59158,-2.17144 -1.04296,-3.074216 -0.41667,-0.937499 -0.88542,-1.40625 -1.40625,-1.40625 -0.20834,0 -0.39866,0.01801 -0.57227,0.05273 l -0.52148,0.103515 c -0.625,0.138885 -1.09375,0.208985 -1.40625,0.208985 -1.21528,0 -2.08269,-0.312502 -2.60352,-0.9375 -0.52083,-0.625001 -0.78125,-1.648656 -0.78125,-3.072266 V 42.105469 c 0,-1.006945 -0.45074,-1.754124 -1.35352,-2.240235 -0.86805,-0.520831 -2.25824,-0.78125 -4.16796,-0.78125 z" />
          <path
             inkscape:connector-curvature="0"
             d="m 45.130738,29.02739 q -3.224606,0 -4.809349,-1.722546 -1.584743,-1.736327 -1.584743,-4.80935 0,-3.458873 1.584743,-5.071177 1.584743,-1.612303 4.368378,-1.612303 1.846569,0 3.017901,0.840603 1.185112,0.840602 1.722546,2.25998 0.551215,1.419379 0.551215,3.210827 0,0.206706 -0.248047,0.551215 -0.234266,0.344509 -0.537434,0.620117 -0.303168,0.275607 -0.468533,0.275607 h -6.242508 q 0.124024,1.405598 0.826822,1.998154 0.71658,0.578775 1.984374,0.578775 0.689018,0 1.240233,-0.151584 0.564996,-0.165364 1.198893,-0.427191 0.38585,-0.179145 0.523654,-0.179145 0.248046,0 0.537434,0.35829 0.303168,0.344509 0.509874,0.799261 0.220486,0.454752 0.220486,0.702799 0,0.564995 -0.771701,0.964626 -0.75792,0.399631 -1.805229,0.606336 -1.033527,0.206706 -1.819009,0.206706 z m 1.322916,-7.868592 q 0,-1.12999 -0.440972,-1.805229 -0.440972,-0.689018 -1.322915,-0.689018 -1.819009,0 -2.20486,2.494247 z"
             style="font-style:normal;font-variant:normal;font-weight:normal;font-stretch:normal;font-size:28.2222px;font-family:Jaldi;-inkscape-font-specification:'Jaldi Normal';font-variant-ligatures:normal;font-variant-caps:normal;font-variant-numeric:normal;font-variant-east-asian:normal;stroke-width:0.264583"
             id="path883" />
          <path
             inkscape:connector-curvature="0"
             d="m 53.922614,28.862026 q -1.460719,0 -1.460719,-0.771701 v -7.77213 q 0,-1.763887 -0.234266,-2.935219 -0.0689,-0.37207 -0.0689,-0.523654 0,-0.275607 0.509874,-0.440972 0.523654,-0.179145 1.171331,-0.261827 0.661458,-0.08268 1.061089,-0.08268 0.427191,0 0.592556,0.316949 0.179145,0.316948 0.316948,0.923284 l 0.08268,0.35829 q 0.578775,-0.771701 1.543401,-1.309135 0.978406,-0.551215 2.094617,-0.551215 1.846569,0 2.728513,0.964626 0.881944,0.964626 0.881944,2.99034 v 8.323345 q 0,0.771701 -1.48828,0.771701 h -0.675238 q -1.46072,0 -1.46072,-0.771701 v -7.77213 q 0,-0.74414 -0.358289,-1.12999 -0.34451,-0.38585 -1.129991,-0.38585 -0.661458,0 -1.171331,0.440971 -0.509874,0.440972 -0.771701,0.978407 v 7.868592 q 0,0.771701 -1.48828,0.771701 z"
             style="font-style:normal;font-variant:normal;font-weight:normal;font-stretch:normal;font-size:28.2222px;font-family:Jaldi;-inkscape-font-specification:'Jaldi Normal';font-variant-ligatures:normal;font-variant-caps:normal;font-variant-numeric:normal;font-variant-east-asian:normal;stroke-width:0.264583"
             id="path885" />
          <path
             inkscape:connector-curvature="0"
             d="m 69.425532,29.02739 q -0.950846,0 -1.887911,-0.206706 -0.937065,-0.206705 -1.557182,-0.592556 -0.606336,-0.38585 -0.606336,-0.881943 0,-0.303168 0.220485,-0.757921 0.220486,-0.454752 0.523655,-0.785481 0.316948,-0.344509 0.551214,-0.344509 0.124024,0 0.537435,0.192925 0.482313,0.220486 0.923285,0.35829 0.440972,0.137803 1.005967,0.137803 0.702799,0 1.061088,-0.261827 0.35829,-0.261827 0.35829,-0.7717 0,-0.385851 -0.220486,-0.633898 -0.206705,-0.261827 -0.537434,-0.427191 -0.330729,-0.165364 -0.937066,-0.399631 l -0.39963,-0.151584 q -0.785481,-0.303168 -1.378037,-0.689018 -0.592556,-0.385851 -1.005968,-1.116211 -0.413411,-0.74414 -0.413411,-1.87413 0,-1.254014 0.537435,-2.149738 0.551215,-0.909504 1.557182,-1.378037 1.005967,-0.482313 2.370224,-0.482313 0.785481,0 1.639864,0.151584 0.854383,0.151584 1.433158,0.468533 0.592556,0.316948 0.592556,0.799261 0,0.275608 -0.179144,0.74414 -0.165365,0.468533 -0.413412,0.826823 -0.248046,0.358289 -0.468532,0.358289 -0.0689,0 -0.385851,-0.124023 -0.427191,-0.179145 -0.826822,-0.275608 -0.38585,-0.110243 -0.895724,-0.110243 -1.295355,0 -1.295355,0.854383 0,0.385851 0.234266,0.661458 0.248047,0.275608 0.606337,0.454753 0.358289,0.179144 1.005967,0.427191 0.74414,0.303168 0.923285,0.38585 0.964626,0.482313 1.543401,1.281575 0.592556,0.785481 0.592556,2.108397 0,1.254014 -0.564995,2.204859 -0.564995,0.950846 -1.653645,1.4745 -1.088649,0.523654 -2.590709,0.523654 z"
             style="font-style:normal;font-variant:normal;font-weight:normal;font-stretch:normal;font-size:28.2222px;font-family:Jaldi;-inkscape-font-specification:'Jaldi Normal';font-variant-ligatures:normal;font-variant-caps:normal;font-variant-numeric:normal;font-variant-east-asian:normal;stroke-width:0.264583"
             id="path887" />
        </g>
        <g
           id="g1621">
          <path
             id="path891-7-5-3"
             style="font-style:normal;font-weight:normal;font-size:10.5833px;line-height:1.25;font-family:sans-serif;fill:#000000;fill-opacity:0.675079;stroke:none;stroke-width:2.16873;paint-order:fill markers stroke"
             d="M 24.780797,7.6346702 A 4.3939721,12.189732 0 0 0 20.387049,19.824625 4.3939721,12.189732 0 0 0 24.780797,32.014579 4.3939721,12.189732 0 0 0 29.17507,19.824625 4.3939721,12.189732 0 0 0 24.780797,7.6346702 Z"
             inkscape:connector-curvature="0" />
          <path
             inkscape:connector-curvature="0"
             d="M 23.387203,7.6537916 A 4.3467255,12.189732 0 0 0 19.05,19.843745 4.3467255,12.189732 0 0 0 23.387203,32.0337 a 4.3467255,12.189732 0 0 0 0.0098,0 h 1.620572 v -0.015 A 4.3467255,12.189732 0 0 0 29.151708,19.843745 4.3467255,12.189732 0 0 0 25.017594,7.6687779 v -0.014986 h -1.620572 z"
             style="font-style:normal;font-weight:normal;font-size:10.58329999999999949px;line-height:1.25;font-family:sans-serif;fill:#000000;fill-opacity:0.79810733;stroke:none;stroke-width:2.15704;paint-order:fill markers stroke"
             id="path891-7-5-4" />
          <path
             inkscape:connector-curvature="0"
             d="M 23.387203,7.6537916 A 4.3467255,12.189732 0 0 0 19.040699,19.843746 4.3467255,12.189732 0 0 0 23.387203,32.0337 4.3467255,12.189732 0 0 0 27.734226,19.843746 4.3467255,12.189732 0 0 0 23.387203,7.6537916 Z"
             style="font-style:normal;font-weight:normal;font-size:10.5833px;line-height:1.25;font-family:sans-serif;fill:#ffffff;fill-opacity:0.1;stroke:none;stroke-width:2.15704;paint-order:fill markers stroke"
             id="path891-7-5" />
          <path
             id="path891-7-5-2"
             style="font-style:normal;font-weight:normal;font-size:10.5833px;line-height:1.25;font-family:sans-serif;fill:#ffffff;fill-opacity:0.1;stroke:none;stroke-width:2.0056;paint-order:fill markers stroke"
             d="M 23.450189,7.6537919 A 3.7578218,12.189732 0 0 1 27.20782,19.843747 3.7578218,12.189732 0 0 1 23.450189,32.033701 3.7578218,12.189732 0 0 1 19.69211,19.843747 3.7578218,12.189732 0 0 1 23.450189,7.6537919 Z"
             inkscape:connector-curvature="0" />
          <ellipse
             transform="matrix(-0.98557301,-0.16925082,-0.17815251,0.98400289,0,0)"
             ry="2.3104618"
             rx="0.47903323"
             cy="10.775349"
             cx="-24.444767"
             id="path1507"
             style="fill:#ffffff;fill-opacity:0.5;stroke-width:4.19081;paint-order:fill markers stroke" />
          <ellipse
             style="font-style:normal;font-weight:normal;font-size:10.58329999999999949px;line-height:1.25;font-family:sans-serif;fill:#ffffff;fill-opacity:0.5;stroke:none;stroke-width:1.45043;paint-order:fill markers stroke"
             id="path1507-5"
             cx="-25.590839"
             cy="12.367706"
             rx="0.17158154"
             ry="0.7726742"
             transform="matrix(-0.98749809,-0.157631,-0.19118186,0.98155463,0,0)" />
          <path
             inkscape:connector-curvature="0"
             d="M 23.100783,9.0854537 A 4.6603,11.112598 0 0 0 19.60809,19.843985 4.6603,11.112598 0 0 0 23.100783,30.602046 4.4728109,12.209013 0 0 1 20.742772,19.843985 4.4728109,12.209013 0 0 1 23.100783,9.0854537 Z"
             style="font-style:normal;font-weight:normal;font-size:10.58329999999999949px;line-height:1.25;font-family:sans-serif;fill:#ffffff;fill-opacity:0.5;stroke:none;stroke-width:2.13253;paint-order:fill markers stroke"
             id="path891-7-5-9" />
          <ellipse
             style="font-style:normal;font-weight:normal;font-size:10.5833px;line-height:1.25;font-family:sans-serif;fill:#ffffff;fill-opacity:0.5;stroke:none;stroke-width:2.85917;paint-order:fill markers stroke"
             id="path1507-1"
             cx="28.971363"
             cy="-16.970432"
             rx="0.27611715"
             ry="1.865765"
             transform="matrix(0.97100174,0.23907242,0.12528318,-0.99212102,0,0)" />
        </g>
      </g>
    </g>
  </g>
</svg>
